<svg
    height="248"
    viewBox="0 0 224 248"
    width="224"
    xmlns="http://www.w3.org/2000/svg"
>
    <g transform="matrix(16,0,0,16,-16.000001,0)">
    <path
        d="m 7.9994523,2.5 a 6.0005477,6 0 1 1 0,12 6.0005478,6.0000001 0 0 1 0,-12 z m 0,1 a 5.0004565,4.9999999 0 1 0 0,9.999999 5.0004565,4.9999999 0 0 0 0,-9.999999 z m -0.5000456,2 A 0.50004565,0.49999999 0 0 1 7.9994523,5.91 V 8.5 h 1.500136 a 0.5020668,0.50202095 0 0 1 0.090008,1 h -2.09019 A 0.50004565,0.49999999 0 0 1 7.009362,9.09 V 6 c 0,-0.28 0.220019,-0.5 0.5000456,-0.5 z"
        id="clock-path" />
    <rect
        height="1.5"
        id="timer-button"
        rx="0.75"
        ry="10"
        width="6"
        x="5"
        y="1" />
    </g>
    <style>
        #clock-path {
            stroke: var(--fds-text-primary, hsl(0, 0%, 0%, 89.56%));
        }

        #timer-button {
            fill: var(--fds-text-primary, hsl(0, 0%, 0%, 89.56%));
        }

        @media (prefers-color-scheme: dark) {
            #clock-path {
                stroke: var(--fds-text-primary, white);
            }

            #timer-button {
                fill: var(--fds-text-primary, white);
            }
        }
    </style>
</svg>
