<?xml version="1.0" standalone="no"?>
<!DOCTYPE svg PUBLIC "-//W3C//DTD SVG 20010904//EN"
 "http://www.w3.org/TR/2001/REC-SVG-20010904/DTD/svg10.dtd">
<svg version="1.0" xmlns="http://www.w3.org/2000/svg"
 width="636.000000pt" height="636.000000pt" viewBox="0 0 636.000000 636.000000"
 preserveAspectRatio="xMidYMid meet">
<metadata>
Created by potrace 1.14, written by Peter Selinger 2001-2017
</metadata>
<g transform="translate(0.000000,636.000000) scale(0.100000,-0.100000)"
fill="#000000" stroke="none">
<path d="M1249 6346 c-108 -29 -203 -110 -253 -215 -28 -60 -31 -75 -31 -161
1 -85 4 -102 32 -160 36 -75 78 -124 145 -169 87 -58 117 -61 598 -61 l435 -1
-65 -25 c-104 -39 -285 -131 -425 -215 -357 -215 -661 -506 -898 -862 -94
-141 -92 -138 -163 -272 -144 -273 -260 -634 -299 -935 -33 -260 -26 -657 16
-875 5 -27 11 -61 14 -75 55 -298 207 -688 371 -947 56 -87 107 -166 121 -183
100 -128 144 -182 173 -215 59 -67 201 -208 269 -265 35 -30 69 -60 76 -67 6
-6 65 -49 130 -96 303 -218 607 -361 965 -456 96 -25 272 -59 347 -66 32 -4
74 -9 93 -11 82 -12 489 -11 590 1 165 21 180 23 275 44 287 63 478 131 733
262 128 65 336 194 409 253 225 181 378 330 512 496 88 110 221 302 221 320 0
5 3 10 8 10 4 0 12 10 18 23 6 12 36 69 67 127 99 186 214 493 253 675 26 124
33 163 40 215 3 25 8 53 9 62 20 101 27 490 12 648 -6 75 -25 202 -42 295 -14
70 -66 266 -93 345 -177 521 -495 982 -912 1320 -30 25 -57 47 -60 51 -3 3
-48 35 -100 71 -192 133 -381 237 -560 309 l-85 34 65 2 c36 2 254 4 485 5
l420 3 67 33 c83 40 149 107 191 191 29 60 32 74 32 161 0 86 -3 101 -31 161
-40 83 -110 153 -194 193 l-65 31 -1935 2 c-1512 1 -1945 -1 -1981 -11z m2178
-1319 c4 -2 33 -8 63 -11 346 -40 746 -214 1045 -455 71 -58 210 -192 280
-271 237 -268 435 -679 489 -1020 3 -19 11 -62 17 -95 5 -33 12 -145 14 -250
3 -196 -2 -272 -31 -440 -38 -225 -161 -541 -287 -740 -144 -227 -290 -389
-522 -578 -38 -31 -173 -120 -240 -158 -261 -150 -517 -234 -825 -273 -98 -13
-435 -15 -485 -3 -11 3 -45 8 -75 11 -70 8 -105 14 -155 28 -22 5 -48 12 -59
14 -231 44 -633 244 -824 408 -201 174 -265 239 -386 400 -89 119 -167 252
-234 400 -49 108 -115 291 -126 348 -2 13 -11 57 -20 98 -8 41 -18 89 -21 105
-27 150 -27 462 0 669 18 132 76 337 137 486 256 617 789 1088 1431 1264 67
19 145 37 172 40 28 4 65 9 83 12 122 19 532 27 559 11z"/>
<path d="M3115 4310 c-161 -35 -289 -140 -335 -275 -19 -56 -20 -81 -18 -699
l3 -641 32 -65 c39 -79 82 -128 148 -168 101 -62 107 -62 785 -62 590 1 617 2
674 21 325 111 372 522 80 702 -33 21 -109 49 -146 56 -5 0 -159 1 -342 1
l-335 0 -3 413 -3 412 -32 65 c-54 108 -130 177 -241 217 -74 27 -200 38 -267
23z"/>
</g>
</svg>
